<svg xmlns="http://www.w3.org/2000/svg" xml:space="preserve" viewBox="0 0 1000 1000"><path fill="#BDD4DF" d="M790.381 621.298c4.901-14.703 6.126-28.18 6.126-37.982 0-36.757-25.73-67.388-62.487-67.388-67.388 0-123.749 58.812-123.749 129.875 0 50.235 41.658 74.739 88.217 74.739h15.928c11.027 0 13.478 9.802 13.478 19.604 0 31.856-19.604 73.514-77.19 73.514-67.388 0-80.866-60.037-93.118-60.037-11.027 0-4.901 19.604 13.478 55.135 3.675 7.352 8.576 12.252 8.576 24.505 0 45.333-63.712 107.82-79.64 107.82s-79.64-62.487-79.64-107.82c0-12.252 4.901-17.153 8.577-24.505 18.378-35.532 24.504-55.135 13.478-55.135-12.252 0-25.73 60.037-93.118 60.037-57.586 0-77.19-41.658-77.19-73.514 0-9.802 2.451-19.604 13.478-19.604h15.928c46.559 0 88.217-24.504 88.217-74.739 0-71.063-56.361-129.875-123.749-129.875-36.757 0-62.487 30.631-62.487 67.388 0 9.802 1.225 23.279 6.126 37.982 4.9 15.928-7.352 22.055-24.505 13.478-50.234-23.279-93.118-98.019-93.118-164.181 0-98.019 62.487-153.154 137.227-153.154 78.415 0 122.523 51.459 136.001 67.388 13.478 13.478 25.73 40.433 39.208 40.433 7.352 0 11.027-7.351 11.027-18.378 0-55.136-62.487-151.929-28.18-226.668 20.827-44.111 86.99-121.3 112.72-121.3s91.893 77.19 112.722 121.298c34.307 74.739-28.18 165.407-28.18 226.668 0 11.027 3.676 18.378 11.027 18.378 13.478 0 25.73-26.955 39.208-40.433 13.478-15.928 57.586-67.388 136.001-67.388 74.739 0 137.227 55.135 137.227 153.154 0 75.964-50.235 144.578-93.118 164.181-17.155 8.579-29.407 2.453-24.506-13.476"/></svg>